# xmcd
#
# Track frame offsets: 
#        150
#        20700
#        43977
#        64580
#
# Disc length: 1131 seconds
#
# Revision: 1
# Processed by: cddbd v1.5.2PL0 Copyright (c) Steve Scherf et al.
# Submitted via: ExactAudioCopyFreeDBPlugin 1.0
#
DISCID=33046904
DTITLE=Aaliyah - One In A Million [CDS)
DYEAR=1997
DGENRE=R&B
TTITLE0=One In A Million (Albulm Version)
TTITLE1=Aaliyah feat. Ginuwine - One in a Million (Remix)
TTITLE2=One In A Million (Instrumental)
TTITLE3=One In A Million (A Cappella)
EXTD=
EXTT0=
EXTT1=
EXTT2=
EXTT3=
PLAYORDER=
